<svg width="162" height="162" viewBox="0 0 162 162" fill="none" xmlns="http://www.w3.org/2000/svg">
<g filter="url(#filter0_d_479_746)">
<circle cx="76.9509" cy="76.9509" r="70.9509" fill="#006EBC"/>
<circle cx="76.9509" cy="76.9509" r="70.5019" stroke="#848484" stroke-width="0.898113"/>
</g>
<g clip-path="url(#clip0_479_746)">
<path d="M76.9591 10.9201C77.2196 10.9207 77.48 10.9212 77.7484 10.9218C81.4862 10.9345 85.1532 10.9987 88.8246 11.7677C89.074 11.8185 89.3235 11.8693 89.5805 11.9217C102.174 14.5559 113.285 20.2965 122.598 29.1661C122.828 29.3849 122.828 29.3849 123.062 29.6082C125.196 31.6545 127.152 33.7561 128.913 36.1314C129.261 36.6 129.614 37.0643 129.968 37.5285C131.597 39.6841 133.039 41.9104 134.368 44.2618C134.455 44.4147 134.542 44.5675 134.632 44.725C139.502 53.3093 142.552 63.6086 142.607 73.5117C142.609 73.73 142.611 73.9483 142.613 74.1732C142.719 90.8796 137.998 106.837 126.692 119.484C126.507 119.698 126.322 119.911 126.131 120.13C123.643 122.962 120.983 125.628 117.993 127.928C117.644 128.201 117.644 128.201 117.289 128.481C109.035 134.839 99.6683 138.942 89.4803 141.057C89.2089 141.113 89.2089 141.113 88.9321 141.171C85.0275 141.921 81.1162 142.097 77.151 142.08C76.9158 142.079 76.6805 142.079 76.4382 142.078C72.7607 142.065 69.1614 141.934 65.5414 141.232C65.2782 141.182 65.015 141.131 64.7439 141.078C52.02 138.533 40.54 132.647 31.2563 123.578C31.0984 123.426 30.9406 123.273 30.778 123.116C26.3971 118.874 22.7328 114.054 19.7426 108.738C19.6504 108.578 19.5583 108.418 19.4634 108.253C13.9329 98.5937 11.433 87.6502 11.4751 76.596C11.4757 76.3355 11.4762 76.075 11.4768 75.8065C11.4895 72.0654 11.5677 68.4069 12.3227 64.7305C12.3735 64.4715 12.4243 64.2124 12.4767 63.9455C14.8857 51.8985 20.4283 41.0927 28.7007 32.0345C29.106 31.5838 29.4893 31.1283 29.865 30.6533C30.5138 29.9047 31.2005 29.2854 31.9539 28.6454C32.591 28.0947 33.2008 27.5196 33.8149 26.9433C42.1854 19.3432 52.8088 14.4386 63.7984 12.0875C64.035 12.0366 64.2717 11.9857 64.5155 11.9332C68.6622 11.0912 72.7388 10.904 76.9591 10.9201Z" fill="#216EB6"/>
<path d="M67.693 34.4485C68.0269 34.4434 68.0269 34.4434 68.3676 34.4383C69.1063 34.4282 69.8449 34.4222 70.5836 34.4171C70.8356 34.415 71.0876 34.4129 71.3472 34.4108C72.6808 34.4001 74.0144 34.3928 75.3481 34.388C76.7266 34.3823 78.1046 34.3647 79.483 34.3444C80.5421 34.331 81.601 34.3268 82.6602 34.3249C83.1683 34.3224 83.6765 34.3165 84.1845 34.307C84.896 34.2945 85.6063 34.295 86.3178 34.2986C86.5277 34.292 86.7376 34.2854 86.9539 34.2787C87.5577 34.2897 88.0051 34.3199 88.5687 34.539C89.1365 35.1598 89.4944 35.827 89.848 36.5859C90.0132 36.8971 90.0132 36.8971 90.1817 37.2146C90.2662 37.3954 90.3507 37.5761 90.4377 37.7623C90.5419 37.9826 90.6461 38.203 90.7535 38.43C90.9227 38.7916 90.9227 38.7916 91.0953 39.1605C91.3607 39.7204 91.6266 40.2801 91.8929 40.8396C92.0052 41.0756 92.0052 41.0756 92.1198 41.3165C93.3889 43.9766 94.6921 46.6202 95.9887 49.2669C96.2511 49.8032 96.5136 50.3394 96.7761 50.8756C97.0253 51.3845 97.2745 51.8934 97.5238 52.4022C97.6375 52.6344 97.7512 52.8666 97.8684 53.1059C98.0303 53.4361 98.0303 53.4361 98.1954 53.773C98.2974 53.9829 98.3993 54.1927 98.5043 54.4089C98.698 54.7972 98.8996 55.1818 99.1099 55.5614C100.153 57.4688 99.8277 59.1033 99.3948 61.1524C99.3265 61.487 99.3265 61.487 99.2568 61.8283C99.1584 62.3098 99.0593 62.791 98.9595 63.2721C98.6909 64.5683 98.4282 65.8657 98.1655 67.1631C98.1114 67.4294 98.0574 67.6957 98.0017 67.9701C97.4609 70.6481 96.9613 73.3331 96.4684 76.0202C95.8326 79.4798 95.1712 82.9323 94.4717 86.3795C93.7939 89.7245 93.1677 93.078 92.5502 96.4346C91.8755 100.098 91.1622 103.752 90.4201 107.402C89.8544 110.185 89.3125 112.967 88.8958 115.777C88.8627 115.986 88.8297 116.195 88.7956 116.41C88.7698 116.586 88.7439 116.762 88.7173 116.944C88.5118 117.627 88.3193 117.957 87.8012 118.461C87.0838 118.561 86.4667 118.596 85.7492 118.585C85.5403 118.586 85.3314 118.587 85.1161 118.588C84.4249 118.59 83.734 118.585 83.0428 118.579C82.5632 118.578 82.0837 118.578 81.6042 118.578C80.599 118.577 79.594 118.573 78.5889 118.566C77.2986 118.558 76.0083 118.556 74.7179 118.556C73.7278 118.556 72.7377 118.553 71.7476 118.549C71.2717 118.548 70.7958 118.547 70.3199 118.546C69.6558 118.545 68.9918 118.541 68.3278 118.535C68.0309 118.536 68.0309 118.536 67.728 118.536C66.3675 118.519 66.3675 118.519 65.7972 117.949C65.6415 117.402 65.6415 117.402 65.5113 116.718C65.4616 116.463 65.412 116.208 65.3609 115.945C65.309 115.668 65.2571 115.391 65.2036 115.106C65.09 114.519 64.9763 113.931 64.8625 113.344C64.8051 113.045 64.7477 112.745 64.6886 112.436C64.433 111.113 64.1646 109.792 63.8963 108.471C62.8671 103.371 61.8525 98.2705 60.9254 93.1507C60.3274 89.8503 59.6797 86.5617 59.0142 83.2743C58.3463 79.9713 57.7182 76.6629 57.1184 73.347C56.6898 70.9793 56.243 68.6166 55.7638 66.2586C55.6925 65.9074 55.6925 65.9074 55.6198 65.549C55.3893 64.4146 55.1564 63.2807 54.9202 62.1474C54.8362 61.7374 54.7523 61.3275 54.6684 60.9175C54.6293 60.7338 54.5902 60.5501 54.5499 60.3608C54.1785 58.5309 54.0935 57.196 54.9682 55.5195C55.1152 55.2325 55.2623 54.9456 55.4138 54.6499C55.4927 54.4999 55.5717 54.35 55.653 54.1954C55.9894 53.556 56.3178 52.9126 56.6469 52.2694C56.8146 51.9418 56.9827 51.6144 57.1513 51.2872C57.8699 49.891 58.5538 48.4799 59.2249 47.0602C60.3756 44.6395 61.534 42.2226 62.7007 39.8096C62.8986 39.3998 63.0962 38.9899 63.2933 38.5797C63.5702 38.0036 63.8485 37.4281 64.1272 36.8528C64.2107 36.6782 64.2943 36.5037 64.3804 36.3238C65.2386 34.5596 65.8115 34.4607 67.693 34.4485Z" fill="#FCFCFE"/>
<path d="M67.693 34.4485C68.0269 34.4434 68.0269 34.4434 68.3676 34.4383C69.1063 34.4282 69.8449 34.4222 70.5836 34.4171C70.8356 34.415 71.0876 34.4129 71.3472 34.4108C72.6808 34.4001 74.0144 34.3928 75.3481 34.388C76.7266 34.3823 78.1046 34.3647 79.483 34.3444C80.5421 34.331 81.601 34.3268 82.6602 34.3249C83.1683 34.3224 83.6765 34.3165 84.1845 34.307C84.896 34.2945 85.6063 34.295 86.3178 34.2986C86.5277 34.292 86.7376 34.2854 86.9539 34.2787C87.5577 34.2897 88.0051 34.3199 88.5687 34.539C89.1365 35.1598 89.4944 35.827 89.848 36.5859C90.0132 36.8971 90.0132 36.8971 90.1817 37.2146C90.2662 37.3954 90.3507 37.5761 90.4377 37.7623C90.5419 37.9826 90.6461 38.203 90.7535 38.43C90.9227 38.7916 90.9227 38.7916 91.0953 39.1605C91.3607 39.7204 91.6266 40.2801 91.8929 40.8396C92.0052 41.0756 92.0052 41.0756 92.1198 41.3165C93.3889 43.9766 94.6921 46.6202 95.9887 49.2669C96.2511 49.8032 96.5136 50.3394 96.7761 50.8756C97.0253 51.3845 97.2745 51.8934 97.5238 52.4022C97.6375 52.6344 97.7512 52.8666 97.8684 53.1059C98.0303 53.4361 98.0303 53.4361 98.1954 53.773C98.2974 53.9829 98.3993 54.1927 98.5043 54.4089C98.698 54.7972 98.8996 55.1818 99.1099 55.5614C100.153 57.4688 99.8277 59.1033 99.3948 61.1524C99.3265 61.487 99.3265 61.487 99.2568 61.8283C99.1584 62.3098 99.0593 62.791 98.9595 63.2721C98.6909 64.5683 98.4282 65.8657 98.1655 67.1631C98.1114 67.4294 98.0574 67.6957 98.0017 67.9701C97.4609 70.6481 96.9613 73.3331 96.4684 76.0202C95.8326 79.4798 95.1712 82.9323 94.4717 86.3795C93.7939 89.7245 93.1677 93.078 92.5502 96.4346C91.8755 100.098 91.1622 103.752 90.4201 107.402C89.8544 110.185 89.3125 112.967 88.8958 115.777C88.8627 115.986 88.8297 116.195 88.7956 116.41C88.7698 116.586 88.7439 116.762 88.7173 116.944C88.5118 117.627 88.3193 117.957 87.8012 118.461C87.0838 118.561 86.4667 118.596 85.7492 118.585C85.5403 118.586 85.3314 118.587 85.1161 118.588C84.4249 118.59 83.734 118.585 83.0428 118.579C82.5632 118.578 82.0837 118.578 81.6042 118.578C80.599 118.577 79.594 118.573 78.5889 118.566C77.2986 118.558 76.0083 118.556 74.7179 118.556C73.7278 118.556 72.7377 118.553 71.7476 118.549C71.2717 118.548 70.7958 118.547 70.3199 118.546C69.6558 118.545 68.9918 118.541 68.3278 118.535C68.0309 118.536 68.0309 118.536 67.728 118.536C66.3675 118.519 66.3675 118.519 65.7972 117.949C65.6415 117.402 65.6415 117.402 65.5113 116.718C65.4616 116.463 65.412 116.208 65.3609 115.945C65.309 115.668 65.2571 115.391 65.2036 115.106C65.09 114.519 64.9763 113.931 64.8625 113.344C64.8051 113.045 64.7477 112.745 64.6886 112.436C64.433 111.113 64.1646 109.792 63.8963 108.471C62.8671 103.371 61.8525 98.2705 60.9254 93.1507C60.3274 89.8503 59.6797 86.5617 59.0142 83.2743C58.3463 79.9713 57.7182 76.6629 57.1184 73.347C56.6898 70.9793 56.243 68.6166 55.7638 66.2586C55.6925 65.9074 55.6925 65.9074 55.6198 65.549C55.3893 64.4146 55.1564 63.2807 54.9202 62.1474C54.8362 61.7374 54.7523 61.3275 54.6684 60.9175C54.6293 60.7338 54.5902 60.5501 54.5499 60.3608C54.1785 58.5309 54.0935 57.196 54.9682 55.5195C55.1152 55.2325 55.2623 54.9456 55.4138 54.6499C55.4927 54.4999 55.5717 54.35 55.653 54.1954C55.9894 53.556 56.3178 52.9126 56.6469 52.2694C56.8146 51.9418 56.9827 51.6144 57.1513 51.2872C57.8699 49.891 58.5538 48.4799 59.2249 47.0602C60.3756 44.6395 61.534 42.2226 62.7007 39.8096C62.8986 39.3998 63.0962 38.9899 63.2933 38.5797C63.5702 38.0036 63.8485 37.4281 64.1272 36.8528C64.2107 36.6782 64.2943 36.5037 64.3804 36.3238C65.2386 34.5596 65.8115 34.4607 67.693 34.4485ZM67.2554 39.8326C67.0061 40.3863 67.0061 40.3863 66.8207 40.9355C66.6884 41.1874 66.556 41.4393 66.4197 41.6988C66.3057 41.9387 66.1916 42.1786 66.0741 42.4257C65.94 42.7055 65.806 42.9852 65.6679 43.2734C65.5259 43.5732 65.3839 43.8729 65.2376 44.1817C64.925 44.8403 64.6118 45.4986 64.2981 46.1567C64.2154 46.3302 64.1328 46.5037 64.0476 46.6825C63.4794 47.8695 62.893 49.0462 62.2963 50.2191C61.8652 51.0669 61.4386 51.9169 61.0122 52.767C60.8029 53.1812 60.5915 53.5944 60.3778 54.0064C58.7348 57.044 58.7348 57.044 58.889 60.3808C58.987 60.8889 59.0847 61.397 59.1799 61.9056C59.3334 62.7115 59.5 63.5145 59.6659 64.3179C59.9009 65.4566 60.1312 66.5961 60.3612 67.7358C60.4091 67.9727 60.4569 68.2097 60.5062 68.4538C61.0181 71.0029 61.4899 73.559 61.9594 76.1162C62.65 79.8731 63.3758 83.621 64.1339 87.3648C64.858 90.945 65.5357 94.5326 66.1965 98.1249C66.8667 101.766 67.5721 105.399 68.3124 109.027C68.348 109.202 68.3837 109.378 68.4204 109.558C68.5153 110.025 68.6109 110.491 68.7066 110.958C68.8209 111.562 68.9113 112.171 68.9851 112.781C69.0457 113.621 69.0457 113.621 69.6351 114.111C70.2873 114.186 70.2873 114.186 71.0555 114.169C71.3525 114.169 71.6496 114.169 71.9557 114.169C72.4386 114.165 72.4386 114.165 72.9313 114.161C73.4243 114.16 73.4243 114.16 73.9273 114.159C74.8014 114.157 75.6754 114.152 76.5495 114.146C77.4413 114.141 78.3331 114.139 79.2249 114.136C80.9749 114.131 82.725 114.122 84.475 114.111C85.0927 112.794 85.4385 111.573 85.6843 110.143C85.7224 109.933 85.7604 109.723 85.7996 109.507C85.8818 109.052 85.963 108.597 86.0434 108.142C86.2628 106.903 86.4895 105.665 86.7158 104.427C86.786 104.041 86.786 104.041 86.8577 103.648C87.3526 100.946 87.8949 98.2537 88.4408 95.5615C89.2505 91.5596 90.02 87.5521 90.7579 83.5364C91.3287 80.433 91.924 77.3359 92.5495 74.2431C93.2521 70.7691 93.9462 67.2934 94.6028 63.8104C94.6837 63.3835 94.7654 62.9569 94.848 62.5304C94.962 61.9416 95.0725 61.3523 95.1821 60.7626C95.2161 60.5904 95.2501 60.4182 95.2851 60.2407C95.5723 58.6564 95.3523 57.4474 94.6414 56.0156C94.5208 55.7701 94.4002 55.5247 94.2759 55.2718C94.1445 55.0095 94.0132 54.7473 93.8778 54.4771C93.7417 54.2012 93.6055 53.9252 93.4652 53.6409C93.029 52.7577 92.59 51.8758 92.1508 50.994C91.7207 50.1264 91.2913 49.2586 90.862 48.3907C90.5817 47.8239 90.3009 47.2573 90.0199 46.6908C89.0587 44.7499 88.1213 42.799 87.2163 40.8312C86.7327 39.7806 86.7327 39.7806 86.0101 38.8887C85.2427 38.7991 85.2427 38.7991 84.3283 38.7981C84.1555 38.7947 83.9828 38.7914 83.8049 38.7879C83.2324 38.7778 82.6599 38.7718 82.0873 38.7667C81.794 38.7636 81.794 38.7636 81.4948 38.7604C80.4598 38.7497 79.4248 38.7424 78.3898 38.7376C77.321 38.7319 76.2527 38.7143 75.1841 38.694C74.3621 38.6806 73.5402 38.6764 72.7181 38.6745C72.3242 38.672 71.9303 38.6661 71.5365 38.6566C69.0815 38.4813 69.0815 38.4813 67.2554 39.8326Z" fill="#F9FBFE"/>
<path d="M69.7816 38.798C70.0406 38.793 70.0406 38.793 70.3049 38.7879C70.8775 38.7778 71.4499 38.7718 72.0225 38.7667C72.2181 38.7646 72.4136 38.7625 72.615 38.7604C73.6501 38.7497 74.685 38.7424 75.7201 38.7376C76.7889 38.7319 77.8571 38.7143 78.9257 38.694C79.7477 38.6806 80.5696 38.6763 81.3918 38.6745C81.7857 38.672 82.1796 38.6661 82.5733 38.6566C85.6447 38.5872 85.6447 38.5872 86.5163 39.3067C86.859 39.8397 87.0796 40.3387 87.2891 40.9355C87.4215 41.1874 87.5538 41.4393 87.6901 41.6988C87.8042 41.9386 87.9182 42.1785 88.0357 42.4257C88.1698 42.7053 88.3039 42.9849 88.442 43.273C88.6603 43.7341 88.8786 44.1952 89.0966 44.6565C89.3341 45.1588 89.5722 45.6608 89.8108 46.1626C89.8934 46.3365 89.976 46.5103 90.0611 46.6895C90.6243 47.8655 91.214 49.025 91.8202 50.1795C92.256 51.0112 92.684 51.8468 93.1117 52.6826C93.3212 53.0872 93.5344 53.4899 93.7513 53.8906C95.1924 56.5575 95.7795 58.4248 95.0816 61.4091C94.9649 61.9159 94.8694 62.4225 94.7798 62.9347C94.5909 64.0057 94.379 65.0714 94.1654 66.1376C94.0864 66.5374 94.0076 66.9371 93.9289 67.3369C93.5158 69.4306 93.0947 71.5226 92.6732 73.6145C92.5468 74.2423 92.4204 74.87 92.2941 75.4978C92.2086 75.9225 92.1231 76.3472 92.0376 76.7719C91.3155 80.3603 90.6382 83.956 89.976 87.556C89.3221 91.1078 88.6318 94.6507 87.9128 98.1899C87.4299 100.568 86.9632 102.948 86.5336 105.336C86.4932 105.56 86.4528 105.784 86.4112 106.014C86.2185 107.085 86.0284 108.155 85.8424 109.227C85.774 109.611 85.7056 109.994 85.6371 110.378C85.6083 110.549 85.5796 110.72 85.5501 110.896C85.3386 112.065 84.9711 113.041 84.4747 114.111C82.5487 114.123 80.6226 114.132 78.6966 114.138C77.8023 114.14 76.908 114.144 76.0137 114.15C74.9862 114.156 73.9586 114.159 72.931 114.161C72.4481 114.165 72.4481 114.165 71.9554 114.169C71.6583 114.169 71.3613 114.169 71.0552 114.169C70.7927 114.171 70.5302 114.172 70.2598 114.173C69.6348 114.111 69.6348 114.111 69.1231 113.6C68.9766 112.992 68.8575 112.398 68.7533 111.783C68.7199 111.596 68.6865 111.408 68.6521 111.216C68.5793 110.808 68.5074 110.4 68.4363 109.992C68.2424 108.881 68.0415 107.771 67.8408 106.66C67.7992 106.43 67.7576 106.199 67.7148 105.961C67.2833 103.581 66.8063 101.21 66.3247 98.8397C65.6032 95.2795 64.9188 91.7141 64.2618 88.1415C63.5712 84.387 62.8466 80.6411 62.0885 76.8996C61.2872 72.9401 60.5414 68.9713 59.8132 64.9978C59.7517 64.6629 59.7517 64.6629 59.6889 64.3213C59.613 63.9081 59.5375 63.4947 59.4624 63.0813C59.4108 62.8001 59.4108 62.8001 59.3581 62.5132C59.3247 62.3306 59.2912 62.148 59.2568 61.9599C59.1793 61.576 59.0914 61.194 58.9954 60.8143C58.3929 58.4261 59.0246 56.8505 60.1021 54.7119C60.2257 54.4615 60.3493 54.2111 60.4766 53.9531C60.8724 53.1521 61.2717 52.3528 61.6712 51.5537C62.0592 50.7721 62.4465 49.9902 62.8336 49.2082C63.0912 48.6881 63.3493 48.1682 63.6078 47.6486C64.6656 45.5181 65.6922 43.3734 66.7001 41.2189C66.8641 40.8716 66.8641 40.8716 67.0314 40.5172C67.1746 40.2113 67.1746 40.2113 67.3208 39.8992C67.9445 38.7348 68.5342 38.8181 69.7816 38.798ZM69.379 40.9355C67.765 43.9612 66.2072 47.0059 64.7255 50.0985C64.4705 50.6292 64.2151 51.1598 63.9594 51.6902C63.7927 52.0365 63.6265 52.3832 63.461 52.7301C63.0581 53.571 62.6445 54.4025 62.2033 55.224C62.078 55.4612 62.078 55.4612 61.9501 55.7032C61.7223 56.1319 61.4899 56.5582 61.2571 56.9844C60.5864 58.7323 60.9904 60.4277 61.3674 62.2008C61.4129 62.4234 61.4584 62.6461 61.5054 62.8755C61.6036 63.3553 61.7027 63.835 61.8026 64.3145C62.072 65.6089 62.3347 66.9048 62.5977 68.2005C62.6788 68.5992 62.6788 68.5992 62.7616 69.0059C63.2978 71.6529 63.7912 74.3072 64.2778 76.9637C65.0321 81.0744 65.8298 85.1749 66.6635 89.2702C66.7445 89.6692 66.8255 90.0682 66.9063 90.4673C66.9445 90.655 66.9826 90.8427 67.0218 91.0361C67.2965 92.4039 67.5319 93.7755 67.7395 95.1553C67.7913 95.6845 67.7913 95.6845 68.0997 95.9453C68.657 95.9694 69.215 95.9753 69.7728 95.9743C69.9476 95.9743 70.1223 95.9744 70.3023 95.9744C70.8824 95.9742 71.4624 95.9722 72.0425 95.9702C72.4437 95.9698 72.8449 95.9694 73.2461 95.9691C74.304 95.9682 75.3618 95.9657 76.4197 95.9628C77.4984 95.9602 78.5771 95.959 79.6558 95.9578C81.7738 95.955 83.8918 95.9506 86.0098 95.9453C86.3046 95.0905 86.5783 94.2581 86.7391 93.368C86.7744 93.1764 86.8096 92.9848 86.8459 92.7874C86.8823 92.5831 86.9188 92.3788 86.9563 92.1683C87.016 91.842 87.016 91.842 87.077 91.5091C87.1625 91.0413 87.2477 90.5733 87.3324 90.1053C87.5589 88.8549 87.7892 87.6052 88.0197 86.3555C88.0662 86.1035 88.1127 85.8515 88.1606 85.5918C88.5726 83.3667 89.013 81.1481 89.4639 78.9306C90.2552 75.036 90.9866 71.1312 91.7022 67.222C91.7836 66.7789 91.8651 66.3359 91.9466 65.8928C92.0049 65.5747 92.0049 65.5747 92.0644 65.2502C92.3507 63.7056 92.6787 62.1751 93.0397 60.646C93.3043 59.1142 93.2503 58.0073 92.5523 56.6129C92.4141 56.3321 92.276 56.0514 92.1337 55.7621C91.9794 55.4573 91.8251 55.1526 91.6707 54.8478C91.5122 54.5286 91.3541 54.2092 91.1963 53.8896C90.8525 53.1939 90.5069 52.4992 90.1604 51.8048C89.5438 50.5654 88.9402 49.3198 88.3376 48.0736C88.233 47.8574 88.1284 47.6413 88.0206 47.4186C87.8112 46.9857 87.6017 46.5528 87.3923 46.1198C87.2383 45.8016 87.2383 45.8016 87.0813 45.477C86.9785 45.2647 86.8758 45.0523 86.77 44.8335C86.4782 44.2309 86.1857 43.6286 85.8929 43.0263C85.8049 42.8441 85.7168 42.6619 85.6261 42.4742C85.2619 41.6493 85.2619 41.6493 84.7306 40.9355C84.2516 40.9115 83.7718 40.9054 83.2923 40.9064C82.8313 40.9065 82.8313 40.9065 82.361 40.9065C81.8593 40.9085 81.8593 40.9085 81.3474 40.9105C81.0036 40.911 80.6598 40.9114 80.316 40.9116C79.4095 40.9126 78.503 40.9151 77.5966 40.9179C76.6722 40.9205 75.7479 40.9217 74.8235 40.923C73.0087 40.9257 71.1938 40.9301 69.379 40.9355Z" fill="#216EB6"/>
<path d="M75.0432 45.9906C75.3744 45.9922 75.3744 45.9922 75.7123 45.9938C76.0717 45.9945 76.0717 45.9945 76.4384 45.9953C76.6892 45.9984 76.9401 46.0016 77.1985 46.0048C77.4503 46.0049 77.7021 46.0051 77.9616 46.0053C79.8332 46.0169 79.8332 46.0169 80.1249 46.3086C80.1473 46.8016 80.1523 47.2953 80.1499 47.7888C80.149 48.0881 80.1482 48.3874 80.1474 48.6958C80.1442 49.1685 80.1442 49.1685 80.1409 49.6508C80.1397 49.9669 80.1386 50.283 80.1374 50.6087C80.1343 51.3928 80.1301 52.1769 80.1249 52.961C80.396 52.955 80.6671 52.9491 80.9464 52.943C81.3016 52.9382 81.6567 52.9335 82.0118 52.929C82.28 52.9225 82.28 52.9225 82.5535 52.916C83.0235 52.9115 83.4935 52.9346 83.9628 52.961C84.6986 53.6968 84.5489 54.2928 84.5569 55.2992C84.5561 55.5355 84.5553 55.7718 84.5544 56.0153C84.5586 56.2506 84.5627 56.4859 84.5669 56.7284C84.5671 56.9545 84.5673 57.1806 84.5674 57.4135C84.5682 57.6206 84.569 57.8277 84.5698 58.0411C84.4745 58.5899 84.4745 58.5899 84.1918 59.0442C83.4633 59.5148 82.8517 59.4308 81.9959 59.4054C81.5432 59.395 81.5432 59.395 81.0814 59.3844C80.8502 59.3755 80.6189 59.3666 80.3807 59.3574C80.3848 59.6479 80.3888 59.9385 80.3929 60.2378C80.4068 61.3149 80.4156 62.392 80.4229 63.4692C80.4268 63.9356 80.432 64.4019 80.4386 64.8682C80.4479 65.5383 80.4523 66.2082 80.4557 66.8783C80.4597 67.087 80.4636 67.2957 80.4677 67.5108C80.4681 68.972 80.4681 68.972 80.0258 69.5192C79.4759 69.957 79.1342 69.9432 78.4368 69.9406C78.2107 69.9405 77.9846 69.9403 77.7517 69.9401C77.5164 69.936 77.281 69.9319 77.0386 69.9276C76.6841 69.9289 76.6841 69.9289 76.3225 69.9301C74.5643 69.916 74.5643 69.916 73.9843 69.336C73.9394 68.565 73.9251 67.8179 73.9343 67.0472C73.935 66.8208 73.9357 66.5943 73.9365 66.361C73.9393 65.6363 73.9458 64.9115 73.9523 64.1868C73.9548 63.6961 73.9572 63.2053 73.9593 62.7146C73.9649 61.5102 73.9738 60.3059 73.9843 59.1016C73.5731 59.106 73.5731 59.106 73.1537 59.1106C72.7962 59.113 72.4388 59.1153 72.0813 59.1176C71.9004 59.1197 71.7195 59.1219 71.5331 59.1241C71.0708 59.1263 70.6085 59.1149 70.1464 59.1016C69.7232 58.6784 69.8572 58.1797 69.8565 57.5984C69.8562 57.3464 69.8559 57.0944 69.8555 56.8348C69.8565 56.5697 69.8575 56.3045 69.8585 56.0313C69.857 55.6335 69.857 55.6335 69.8555 55.2277C69.8559 54.9757 69.8562 54.7237 69.8565 54.4641C69.8568 54.2313 69.8571 53.9984 69.8574 53.7585C69.8905 53.2168 69.8905 53.2168 70.1464 52.961C70.7938 52.9422 71.4341 52.9373 72.0813 52.945C72.2632 52.9461 72.4451 52.9473 72.6325 52.9485C73.0831 52.9515 73.5337 52.9561 73.9843 52.961C73.9816 52.7699 73.9789 52.5788 73.9761 52.3819C73.9655 51.5195 73.9588 50.6571 73.9523 49.7947C73.948 49.4939 73.9437 49.1931 73.9393 48.8832C73.9376 48.5963 73.936 48.3093 73.9343 48.0137C73.9316 47.7484 73.9289 47.4831 73.9262 47.2097C74.001 46.3785 74.195 46.0869 75.0432 45.9906Z" fill="#216EB6"/>
<path d="M69.6348 104.389C74.5319 104.389 79.4291 104.389 84.4746 104.389C84.2688 105.608 84.063 106.827 83.851 108.083C83.7543 108.66 83.7543 108.66 83.6556 109.249C83.6043 109.55 83.553 109.851 83.5001 110.16C83.4479 110.47 83.3956 110.78 83.3418 111.098C83.1953 111.809 83.1953 111.809 82.9395 112.064C82.5703 112.088 82.1999 112.095 81.83 112.093C81.4766 112.093 81.4766 112.093 81.116 112.093C80.8599 112.092 80.6038 112.091 80.3399 112.089C80.079 112.089 79.8181 112.089 79.5494 112.088C78.7125 112.087 77.8756 112.084 77.0387 112.08C76.4728 112.079 75.907 112.078 75.3411 112.077C73.9507 112.074 72.5603 112.07 71.1699 112.064C71.0083 111.409 70.8487 110.754 70.6902 110.098C70.6457 109.918 70.6011 109.738 70.5553 109.553C70.1417 107.83 69.9075 106.161 69.6348 104.389Z" fill="#FDFDFE"/>
<path d="M68.6113 97.9922C74.1839 97.9922 79.7566 97.9922 85.498 97.9922C85.2422 101.062 85.2422 101.062 84.9863 102.342C79.7514 102.342 74.5166 102.342 69.123 102.342C68.6113 99.2715 68.6113 99.2715 68.6113 97.9922Z" fill="#F6F9FE"/>
<path d="M76.0312 48.0996C76.7067 48.0996 77.3822 48.0996 78.0781 48.0996C78.0845 48.2829 78.0909 48.4663 78.0976 48.6552C78.1272 49.4828 78.1586 50.3104 78.1901 51.1379C78.2001 51.4265 78.2102 51.7151 78.2205 52.0125C78.2313 52.2879 78.242 52.5633 78.253 52.847C78.2624 53.1016 78.2718 53.3562 78.2815 53.6185C78.2955 54.2422 78.2955 54.2422 78.5898 54.752C79.4279 54.8722 79.4279 54.8722 80.3969 54.9119C80.727 54.931 81.0571 54.9501 81.3973 54.9698C81.7807 54.9886 81.7807 54.9886 82.1719 55.0078C82.1719 55.6833 82.1719 56.3587 82.1719 57.0547C81.9163 57.0672 81.6607 57.0798 81.3973 57.0927C81.0672 57.1118 80.737 57.1309 80.3969 57.1506C79.9026 57.1774 79.9026 57.1774 79.3984 57.2046C78.9982 57.257 78.9982 57.257 78.5898 57.3105C78.1642 58.1618 78.2716 59.118 78.253 60.055C78.2477 60.2758 78.2424 60.4966 78.2369 60.724C78.2202 61.4305 78.2051 62.137 78.1901 62.8435C78.179 63.3219 78.1679 63.8003 78.1566 64.2787C78.1292 65.4527 78.1032 66.6267 78.0781 67.8008C77.4027 67.8008 76.7272 67.8008 76.0312 67.8008C76.0248 67.4921 76.0184 67.1834 76.0118 66.8654C75.9878 65.7243 75.9621 64.5833 75.936 63.4422C75.9249 62.9476 75.9142 62.453 75.904 61.9583C75.8893 61.2489 75.873 60.5395 75.8563 59.8302C75.8521 59.6076 75.8478 59.3851 75.8434 59.1558C75.916 58.152 75.916 58.152 75.5195 57.3105C74.9183 57.2503 74.3156 57.2047 73.7125 57.1666C73.3824 57.1452 73.0522 57.1237 72.7121 57.1017C72.3287 57.0784 72.3287 57.0784 71.9375 57.0547C71.9375 56.3792 71.9375 55.7038 71.9375 55.0078C72.1931 54.9923 72.4487 54.9768 72.7121 54.9608C73.0422 54.9394 73.3724 54.918 73.7125 54.8959C74.042 54.8751 74.3715 54.8543 74.711 54.8329C75.4838 54.8417 75.4838 54.8417 75.7754 54.4961C75.8158 54.0223 75.8396 53.5471 75.8563 53.0719C75.8671 52.7841 75.8778 52.4963 75.8888 52.1999C75.8989 51.8969 75.9089 51.594 75.9193 51.2819C75.9304 50.9779 75.9414 50.674 75.9528 50.3609C75.98 49.6071 76.0061 48.8534 76.0312 48.0996Z" fill="#F9FBFE"/>
</g>
<defs>
<filter id="filter0_d_479_746" x="0.880755" y="0.880755" width="161.122" height="161.121" filterUnits="userSpaceOnUse" color-interpolation-filters="sRGB">
<feFlood flood-opacity="0" result="BackgroundImageFix"/>
<feColorMatrix in="SourceAlpha" type="matrix" values="0 0 0 0 0 0 0 0 0 0 0 0 0 0 0 0 0 0 127 0" result="hardAlpha"/>
<feOffset dx="4.49057" dy="4.49057"/>
<feGaussianBlur stdDeviation="4.80491"/>
<feComposite in2="hardAlpha" operator="out"/>
<feColorMatrix type="matrix" values="0 0 0 0 0 0 0 0 0 0 0 0 0 0 0 0 0 0 0.25 0"/>
<feBlend mode="normal" in2="BackgroundImageFix" result="effect1_dropShadow_479_746"/>
<feBlend mode="normal" in="SourceGraphic" in2="effect1_dropShadow_479_746" result="shape"/>
</filter>
<clipPath id="clip0_479_746">
<rect width="131" height="131" fill="white" transform="translate(11.5547 11)"/>
</clipPath>
</defs>
</svg>
